<svg width="494" height="250" viewBox="0 0 494 250" fill="none" xmlns="http://www.w3.org/2000/svg">
<mask id="mask0_5_65" style="mask-type:alpha" maskUnits="userSpaceOnUse" x="244" y="150" width="251" height="100">
<rect x="494" y="250" width="250" height="100" transform="rotate(180 494 250)" fill="white"/>
</mask>
<g mask="url(#mask0_5_65)">
<path d="M266.628 196.728C281.88 218.496 303.674 234.836 328.845 243.375C354.016 251.913 381.253 252.206 406.602 244.21C431.951 236.215 454.091 220.347 469.807 198.912C485.524 177.476 493.998 151.589 494 125.009L369 125L266.628 196.728Z" fill="white"/>
</g>
<mask id="mask1_5_65" style="mask-type:alpha" maskUnits="userSpaceOnUse" x="244" y="0" width="251" height="100">
<rect x="244" y="4.57764e-05" width="250" height="100" fill="white"/>
</mask>
<g mask="url(#mask1_5_65)">
<path d="M471.372 53.272C456.12 31.5037 434.326 15.1639 409.155 6.62537C383.984 -1.91316 356.747 -2.20586 331.398 5.78978C306.049 13.7854 283.909 29.6531 268.193 51.0886C252.477 72.5241 244.002 98.4113 244 124.991L369 125L471.372 53.272Z" fill="white"/>
</g>
<path d="M125 100H247L249 112.5L250 125L249 137.5L247 150H125V100Z" fill="white"/>
<path fill-rule="evenodd" clip-rule="evenodd" d="M200 125C200 141.846 194.328 158.202 183.899 171.432C173.469 184.662 158.89 193.995 142.509 197.928C126.128 201.861 108.9 200.164 93.6007 193.111C78.3017 186.058 65.8228 174.06 58.1747 159.049C56.676 156.108 55.38 153.085 54.2894 150H2.52562C4.76307 160.962 8.47663 171.646 13.6243 181.749C26.3712 206.766 47.1694 226.763 72.6677 238.518C98.166 250.273 126.879 253.101 154.181 246.546C181.482 239.992 205.782 224.436 223.165 202.387C229.824 193.94 235.319 184.729 239.565 175C246.402 159.332 250 142.322 250 125H200ZM0.000158787 125.198C-5.26452e-05 125.065 -5.26684e-05 124.932 0.000158787 124.8V125.198ZM2.52567 100H54.2894C58.6611 87.6349 66.2234 76.5686 76.2915 67.9696C89.1017 57.0287 105.222 50.7193 122.056 50.0579C138.889 49.3965 155.455 54.4217 169.084 64.3238L198.473 23.8729C184.46 13.6915 168.583 6.60364 151.889 2.92618C141.522 0.642692 130.84 -0.32585 120.093 0.0964198C92.0369 1.19874 65.1693 11.7145 43.8191 29.9493C22.6277 48.0485 8.09691 72.7062 2.52567 100Z" fill="white"/>
</svg>
