<svg width="1000" height="1000" viewBox="0 0 1000 1000" fill="none" xmlns="http://www.w3.org/2000/svg">
<rect width="1000" height="1000" rx="150" fill="black"/>
<mask id="mask0_13_279" style="mask-type:alpha" maskUnits="userSpaceOnUse" x="495" y="537" width="380" height="153">
<rect x="875" y="689.555" width="379.555" height="151.822" transform="rotate(180 875 689.555)" fill="white"/>
</mask>
<g mask="url(#mask0_13_279)">
<path d="M529.799 608.676C552.955 641.725 586.043 666.533 624.258 679.496C662.474 692.459 703.826 692.904 742.311 680.764C780.796 668.625 814.409 644.535 838.27 611.991C862.131 579.447 874.997 540.145 875 499.791L685.223 499.777L529.799 608.676Z" fill="white"/>
</g>
<mask id="mask1_13_279" style="mask-type:alpha" maskUnits="userSpaceOnUse" x="495" y="310" width="380" height="152">
<rect x="495.445" y="310" width="379.555" height="151.822" fill="white"/>
</mask>
<g mask="url(#mask1_13_279)">
<path d="M840.646 390.879C817.49 357.829 784.402 333.022 746.187 320.059C707.972 307.095 666.619 306.651 628.135 318.79C589.65 330.929 556.036 355.02 532.175 387.564C508.314 420.107 495.448 459.41 495.445 499.764L685.223 499.777L840.646 390.879Z" fill="white"/>
</g>
<path d="M314.777 461.822H500L503.037 480.8L504.555 499.777L503.037 518.755L500 537.733H314.777V461.822Z" fill="white"/>
<path fill-rule="evenodd" clip-rule="evenodd" d="M404.199 570.271C420.033 550.186 428.644 525.354 428.644 499.777H454.555H478.644H504.555C504.555 516.783 502.271 533.59 497.85 549.777C491.188 574.166 479.675 597.146 463.813 617.267C437.422 650.743 400.53 674.36 359.08 684.311C317.63 694.262 274.037 689.969 235.325 672.122C196.613 654.276 165.037 623.916 145.685 585.934C137.869 570.596 132.231 554.375 128.834 537.733H207.423C209.079 542.416 211.047 547.006 213.322 551.472C224.933 574.26 243.879 592.476 267.106 603.184C290.333 613.892 316.489 616.468 341.359 610.498C366.229 604.527 388.364 590.357 404.199 570.271ZM240.827 413.193C225.542 426.248 214.06 443.049 207.423 461.822H128.835C137.293 420.384 159.354 382.948 191.527 355.47C223.941 327.785 264.732 311.82 307.327 310.146C332.929 309.14 358.287 313.333 381.934 322.28C397.628 328.217 412.568 336.249 426.326 346.244L411.096 367.207L396.936 386.695L381.706 407.658C361.015 392.624 335.864 384.995 310.307 385.999C284.75 387.003 260.276 396.582 240.827 413.193ZM125 499.363C125 499.638 125 499.913 125 500.188V499.363Z" fill="white"/>
</svg>
